<?xml version="1.0" encoding="UTF-8"?><svg xmlns="http://www.w3.org/2000/svg" width="34" height="36" viewBox="0 0 34 36"><g id="uuid-28bdba00-a5c3-46d3-9873-5be82e85a2f9"><path id="uuid-d8435612-04cd-478f-9785-43ffe6d9ec1c" d="m3.0077,6h30.9923v30H5c-1.0077,0-2-.9923-2-2l.0077-28Z" fill="#126328"/><path id="uuid-e049475a-593b-4689-9ff9-8d9d1ce0601f" d="m6,.0043h24.1753c1.0071,0,1.8247.8176,1.8247,1.8247v23.171H6V.0043h0Z" fill="#038c4a"/><polygon id="uuid-df33ad32-aa56-499b-b633-1a6a8e4cede7" points=".0095 28.3884 6 25 6 .0043 .0095 3.3927 .0095 28.3884" fill="#53ad72"/></g><g id="uuid-e7f42861-e6ee-4158-847c-05d8d1d73344"><path d="m15.7095,29.2236v.5156c0,.9932-.8418,1.5615-2.0854,1.5615h-.5308v1.6992h-1.3271v-5.3086h1.979c1.1909,0,1.9644.5537,1.9644,1.5322Zm-1.3271.0752c0-.4551-.2881-.667-.7358-.667h-.5532v1.7295h.4624c.5005,0,.8267-.2051.8267-.7207v-.3418Z" fill="#fff"/><path d="m20.5566,28.6475h-1.3887v4.3525h-1.3267v-4.3525h-1.4028v-.9561h4.1182v.9561Z" fill="#fff"/><path d="m25.7393,32.2041v.7959c-.1367.0762-.3262.1133-.5303.1133-.4629,0-.8271-.1357-1.1152-.7354l-.6367-1.2891h-.584v1.9111h-1.3271v-5.3086h2.0098c1.1523,0,1.9258.5537,1.9258,1.4414v.4775c0,.5234-.3262.9326-.8418,1.1904l.5918,1.1152c.0986.1963.2275.2881.4473.2881h.0605Zm-2.8662-1.9873h.5762c.4248,0,.7051-.2197.7051-.6299v-.3789c0-.4014-.2881-.6064-.7051-.6064h-.5762v1.6152Z" fill="#fff"/></g><g id="uuid-70315c9e-5e8a-4003-abc3-f76d00d8d3ac"><path d="m18.2822,8.5273v3.3408h4.6006v2.4805h-4.6006v5.6611h-3.501V6.0068h8.9424v2.5205h-5.4414Z" fill="#fff"/></g></svg>